<svg xmlns="http://www.w3.org/2000/svg" viewBox="0 0 122.9 122.9">
    <path d="M46.1 73.9V49c0.2-1.9-1.1-2.5-3.1-2.5h-4.8v-6.7h10.4v-8.4h5.9v8.4h4.6v-8.4h5.9v8.5c1.3 0 2.6 0.1 3.8 0.2 5.4 0.3 9.1 1.2 11.5 6.4 0.7 1.4 1 3 1 4.5 0 2-0.5 3.2-1.5 4.8 -1 1.6-2.4 2.8-4.3 3.6 14 1.7 11.4 21.7-3.2 23.2 -1.2 0.1-4.3 0.3-7.3 0.4v8.5h-5.9v-8.4h-4.6v8.4h-5.9v-8.4h-10.4l1.5-6.5h4.6C45.8 76.8 46.3 75.8 46.1 73.9L46.1 73.9 46.1 73.9zM61.4 0c17 0 32.3 6.9 43.4 18 11.1 11.1 18 26.5 18 43.4 0 17-6.9 32.3-18 43.4 -11.1 11.1-26.5 18-43.4 18S29.1 116 18 104.9C6.9 93.8 0 78.4 0 61.4 0 44.5 6.9 29.1 18 18 29.1 6.9 44.5 0 61.4 0L61.4 0zM99.9 23C90.1 13.1 76.5 7 61.4 7c-15 0-28.6 6.1-38.5 15.9C13.1 32.8 7 46.4 7 61.4c0 15 6.1 28.6 15.9 38.5 9.9 9.9 23.5 15.9 38.5 15.9 15 0 28.6-6.1 38.5-15.9 9.9-9.8 15.9-23.4 15.9-38.5C115.9 46.4 109.8 32.8 99.9 23L99.9 23zM65 47.6v9.8C72 55.7 71.5 49.5 65 47.6L65 47.6zM65 63.4v12.1c0.7-0.1 1.4-0.2 1.9-0.3 7.1-1.3 8.7-9.6 0.3-11.5C66.5 63.6 65.8 63.5 65 63.4L65 63.4 65 63.4zM59.1 75.8V63.2h-2.4v12.6H59.1L59.1 75.8zM59.1 57.9v-10.7h-2.4v10.7H59.1L59.1 57.9z"/>
</svg>
